<svg xmlns="http://www.w3.org/2000/svg" xmlns:xlink="http://www.w3.org/1999/xlink" width="204" zoomAndPan="magnify" viewBox="0 0 153 153.000002" height="204" preserveAspectRatio="xMidYMid meet" version="1.0"><path fill="#1d1d1b" d="M 68.117188 62.128906 C 63.167969 62.128906 59.140625 63.460938 56.03125 66.125 C 52.921875 68.78125 51.375 72.222656 51.375 76.4375 C 51.375 80.652344 52.914062 83.960938 56 86.636719 C 59.09375 89.308594 63.039062 90.648438 67.847656 90.648438 C 70.035156 90.648438 72.242188 90.296875 74.472656 89.609375 C 76.703125 88.917969 78.371094 88.023438 79.464844 86.925781 L 79.464844 75.617188 L 68.691406 75.617188 L 68.691406 80.625 L 72.539062 80.625 L 72.539062 83.875 C 71.035156 84.535156 69.546875 84.867188 68.0625 84.867188 C 65.246094 84.867188 62.988281 84.113281 61.265625 82.597656 C 59.546875 81.085938 58.683594 79.113281 58.683594 76.664062 C 58.683594 74.21875 59.558594 72.03125 61.308594 70.378906 C 63.058594 68.738281 65.554688 67.914062 68.789062 67.914062 C 72.023438 67.914062 75.570312 68.816406 79.082031 70.609375 L 79.082031 64.527344 C 75.859375 62.933594 72.203125 62.128906 68.117188 62.128906 Z M 68.117188 62.128906 " fill-opacity="1" fill-rule="evenodd"/><path fill="#1d1d1b" d="M 93.324219 67.527344 C 96.046875 67.527344 97.410156 68.617188 97.410156 70.785156 C 97.410156 71.84375 97.054688 72.65625 96.351562 73.222656 C 95.640625 73.796875 94.691406 74.078125 93.492188 74.078125 L 89.710938 74.078125 L 89.710938 67.527344 Z M 82.789062 90.261719 L 89.710938 90.261719 L 89.710938 79.085938 L 91.792969 79.085938 C 92.75 79.085938 93.644531 79.429688 94.488281 80.117188 C 95.320312 80.804688 96.320312 82.441406 97.476562 85.019531 C 98.628906 87.597656 99.433594 89.34375 99.902344 90.261719 L 107.414062 90.261719 C 106.246094 87.792969 105.03125 85.160156 103.78125 82.371094 C 102.527344 79.574219 101.203125 77.90625 99.816406 77.351562 C 103.082031 75.878906 104.71875 73.605469 104.71875 70.535156 C 104.71875 68.316406 103.859375 66.425781 102.140625 64.859375 C 100.421875 63.304688 98.191406 62.515625 95.445312 62.515625 L 82.785156 62.515625 L 82.785156 90.265625 Z M 82.789062 90.261719 " fill-opacity="1" fill-rule="evenodd"/><path fill="#1d1d1b" d="M 128.382812 84.292969 C 127.078125 84.679688 125.714844 84.867188 124.3125 84.867188 C 121.46875 84.867188 119.132812 84.066406 117.316406 82.460938 C 115.496094 80.859375 114.589844 78.816406 114.589844 76.347656 C 114.589844 73.878906 115.523438 71.878906 117.402344 70.289062 C 119.277344 68.707031 121.6875 67.914062 124.644531 67.914062 C 127.605469 67.914062 130.847656 68.816406 134.214844 70.609375 L 134.214844 64.535156 C 131.449219 62.933594 128.074219 62.128906 124.089844 62.128906 C 119.085938 62.128906 115.035156 63.527344 111.933594 66.308594 C 108.828125 69.097656 107.277344 72.484375 107.277344 76.480469 C 107.277344 80.476562 108.726562 83.835938 111.636719 86.558594 C 114.550781 89.285156 118.449219 90.644531 123.355469 90.644531 C 127.136719 90.644531 130.757812 89.726562 134.214844 87.871094 L 134.214844 81.785156 C 131.628906 83.078125 129.6875 83.914062 128.382812 84.292969 Z M 128.382812 84.292969 " fill-opacity="1" fill-rule="evenodd"/><path fill="#007dcd" d="M 26.5625 54.808594 C 14.765625 54.808594 5.195312 64.296875 5.195312 76.003906 C 5.195312 87.707031 14.765625 97.199219 26.5625 97.199219 C 32.128906 97.199219 37.175781 95.089844 40.980469 91.632812 L 35.851562 91.632812 L 33.957031 89.707031 C 31.65625 90.988281 29.109375 91.632812 26.378906 91.632812 L 26.34375 91.632812 C 22.414062 91.632812 18.859375 90.269531 15.828125 87.640625 C 12.5 84.738281 10.78125 80.878906 10.796875 76.371094 C 10.78125 71.949219 12.394531 68.136719 15.546875 65.167969 C 18.578125 62.316406 22.285156 60.832031 26.425781 60.839844 C 30.214844 60.832031 33.675781 62.121094 36.640625 64.628906 C 40.234375 67.648438 42.078125 71.742188 42.058594 76.570312 C 42.078125 80.074219 40.847656 83.28125 38.496094 86.050781 L 42.351562 89.78125 L 42.585938 90.007812 C 45.90625 86.28125 47.910156 81.375 47.910156 76.003906 C 47.910156 64.300781 38.355469 54.808594 26.5625 54.808594 Z M 26.5625 54.808594 " fill-opacity="1" fill-rule="nonzero"/><path fill="#007dcd" d="M 30.492188 78.035156 L 34.007812 81.511719 C 35.113281 80.050781 35.65625 78.359375 35.65625 76.292969 C 35.648438 73.558594 34.777344 71.414062 33.003906 69.589844 C 31.199219 67.789062 29.082031 66.925781 26.378906 66.917969 C 23.636719 66.925781 21.546875 67.789062 19.800781 69.582031 C 18.066406 71.378906 17.210938 73.574219 17.210938 76.398438 C 17.21875 79.140625 18.085938 81.226562 19.859375 82.933594 C 21.773438 84.714844 23.832031 85.558594 26.234375 85.570312 C 27.324219 85.570312 28.335938 85.402344 29.265625 85.078125 L 21.921875 78.039062 L 30.492188 78.039062 Z M 30.492188 78.035156 " fill-opacity="1" fill-rule="nonzero"/></svg>